<?xml version="1.0" standalone="no"?>
<!DOCTYPE svg PUBLIC "-//W3C//DTD SVG 20010904//EN"
 "http://www.w3.org/TR/2001/REC-SVG-20010904/DTD/svg10.dtd">
<svg version="1.0" xmlns="http://www.w3.org/2000/svg"
 width="512.000000pt" height="512.000000pt" viewBox="0 0 512.000000 512.000000"
 preserveAspectRatio="xMidYMid meet">
<metadata>
Created by potrace 1.11, written by Peter Selinger 2001-2013
</metadata>
<g transform="translate(0.000000,512.000000) scale(0.100000,-0.100000)"
fill="#000000" stroke="none">
<path d="M2250 4955 c-758 -107 -1389 -526 -1775 -1180 -142 -241 -235 -493
-291 -790 -22 -115 -27 -179 -31 -356 -7 -303 22 -523 103 -781 401 -1280
1764 -1990 3037 -1582 627 201 1136 643 1428 1238 159 326 235 633 246 996 19
649 -227 1274 -685 1744 -208 212 -394 346 -667 481 -249 123 -482 193 -758
230 -145 19 -472 19 -607 0z m-560 -350 c6 -8 9 -19 5 -25 -4 -6 -52 -33 -107
-61 -406 -204 -770 -556 -957 -928 -23 -44 -37 -61 -51 -61 -36 0 -33 28 9
105 181 329 456 624 766 820 75 48 296 165 311 165 6 0 17 -7 24 -15z m-25
-156 c0 -19 -15 -32 -88 -71 -214 -116 -419 -281 -578 -465 -88 -103 -214
-279 -241 -339 -8 -17 -18 -24 -32 -22 -45 6 -31 42 78 203 186 276 457 521
749 676 51 27 97 47 102 45 6 -1 10 -13 10 -27z m82 -75 c8 -21 -8 -34 -102
-84 -192 -102 -338 -214 -500 -381 -114 -118 -172 -193 -254 -326 -55 -91 -84
-114 -97 -78 -11 26 91 189 206 330 162 199 363 365 597 495 112 63 140 71
150 44z m-23 -139 c6 -17 -11 -31 -108 -89 -142 -84 -238 -159 -361 -281 -122
-122 -197 -219 -286 -367 -65 -108 -71 -114 -93 -93 -15 16 -14 21 15 73 172
307 429 568 727 738 73 42 95 46 106 19z m91 -80 c0 -13 -15 -28 -45 -44 -188
-100 -313 -191 -450 -330 -102 -104 -201 -232 -262 -338 -20 -35 -36 -53 -49
-53 -36 0 -31 29 15 105 161 266 403 497 668 640 88 48 123 53 123 20z m-57
-157 c2 -11 -24 -34 -84 -74 -240 -158 -447 -387 -562 -620 -20 -42 -31 -54
-49 -54 -34 0 -29 32 19 119 125 228 323 444 542 592 89 60 128 71 134 37z
m120 -80 c-2 -12 -22 -31 -48 -45 -210 -117 -396 -291 -527 -490 -30 -45 -57
-85 -62 -87 -4 -3 -16 1 -26 8 -18 13 -17 16 10 62 101 176 304 387 482 501
127 81 178 96 171 51z m95 -82 c8 -20 -3 -29 -77 -70 -161 -87 -340 -245 -448
-393 -60 -83 -76 -94 -96 -70 -14 17 33 89 126 197 113 130 225 222 376 309
85 48 109 54 119 27z m-5 -129 c16 -19 6 -30 -93 -94 -135 -89 -232 -182 -333
-317 -53 -70 -83 -88 -90 -52 -6 27 61 119 163 225 94 97 158 150 260 213 65
41 77 44 93 25z m46 -93 c9 -8 14 -20 11 -24 -3 -5 -44 -34 -91 -65 -119 -77
-253 -210 -331 -328 -36 -53 -69 -99 -73 -102 -4 -2 -15 2 -25 9 -18 13 -17
16 10 62 95 165 258 331 424 431 30 18 56 33 57 33 2 0 10 -7 18 -16z m136
-69 c17 -21 4 -35 -72 -75 -138 -72 -288 -207 -376 -337 -50 -74 -56 -78 -77
-57 -15 15 -15 18 1 43 118 185 271 327 444 413 65 32 64 32 80 13z m-10 -120
c6 -8 10 -18 8 -24 -1 -5 -44 -36 -94 -70 -108 -71 -222 -189 -283 -290 -44
-72 -59 -83 -81 -56 -28 34 156 268 284 363 51 38 136 91 147 91 4 1 12 -6 19
-14z m609 -51 c161 -41 278 -108 401 -233 148 -150 226 -327 236 -534 12 -244
-71 -464 -240 -633 -171 -170 -396 -255 -641 -240 -130 7 -197 26 -325 88 -92
46 -116 64 -200 147 -127 127 -193 241 -235 406 -22 88 -20 291 4 387 76 297
308 530 605 608 94 25 303 27 395 4z m709 -1157 c9 -10 4 -29 -18 -74 -84
-180 -242 -347 -418 -444 -43 -23 -44 -23 -58 -5 -18 25 -10 34 73 82 81 48
209 166 269 249 24 34 59 94 79 133 35 71 52 85 73 59z m61 -126 c18 -33 -92
-196 -207 -308 -78 -76 -206 -166 -230 -161 -40 8 -23 37 57 93 104 73 205
175 269 272 92 140 92 140 111 104z m127 -26 c8 -19 -54 -130 -122 -222 -88
-118 -244 -260 -343 -312 -20 -11 -26 -10 -40 4 -18 19 -12 25 97 104 122 87
249 231 324 368 28 52 45 73 59 73 11 0 22 -7 25 -15z m481 -81 c12 -32 -105
-263 -203 -402 -108 -151 -271 -310 -421 -410 -53 -36 -93 -52 -93 -38 0 2 -3
11 -6 19 -3 10 21 33 78 73 237 167 415 376 539 631 27 56 49 106 49 110 0 13
22 33 37 33 8 0 16 -7 20 -16z m-417 -9 c16 -19 -3 -57 -88 -179 -101 -144
-338 -354 -388 -344 -39 7 -26 36 33 76 136 93 247 209 350 365 36 53 68 97
73 97 4 0 13 -7 20 -15z m613 -108 c-3 -38 -108 -246 -176 -348 -161 -241
-367 -441 -601 -581 -82 -50 -110 -58 -119 -35 -8 21 3 32 68 70 310 181 569
465 729 800 50 105 64 127 81 125 15 -2 20 -10 18 -31z m-387 -21 c-10 -48
-148 -245 -242 -345 -129 -137 -323 -287 -362 -279 -40 8 -16 43 72 104 195
136 375 334 464 511 22 42 37 54 60 45 10 -3 12 -14 8 -36z m274 13 c0 -20
-101 -208 -157 -291 -151 -226 -352 -416 -585 -554 -51 -30 -97 -54 -104 -54
-6 0 -17 7 -24 16 -16 19 -6 30 62 67 145 80 260 168 393 301 128 129 221 256
301 411 71 137 71 137 95 124 10 -5 19 -14 19 -20z m-424 -13 c12 -32 -154
-243 -280 -354 -119 -106 -281 -210 -310 -199 -31 12 -15 38 45 75 180 110
333 250 442 405 60 85 90 106 103 73z m593 -100 c10 -12 4 -31 -27 -94 -168
-335 -446 -631 -780 -828 -144 -86 -192 -99 -192 -55 0 15 21 31 83 62 342
174 632 463 826 824 61 113 67 119 90 91z m228 -61 c17 -47 -173 -373 -320
-550 -204 -243 -452 -441 -731 -581 -96 -48 -111 -53 -124 -40 -24 24 -8 40
80 83 215 103 407 242 588 423 178 178 314 365 414 570 23 47 46 91 50 98 10
17 35 15 43 -3z m-140 -21 c8 -20 -30 -97 -107 -220 -194 -307 -447 -551 -755
-727 -110 -63 -141 -75 -157 -59 -20 20 0 39 89 87 361 195 677 516 853 865
12 25 27 51 32 58 14 17 37 15 45 -4z"/>
<path d="M2522 2634 c-57 -24 -61 -117 -6 -143 39 -18 73 -13 99 14 30 30 32
73 5 107 -24 31 -59 39 -98 22z"/>
</g>
</svg>
